<svg width="100%" height="100%">
    <defs>
        <pattern id="arewa-knot" height="100" width="100" preserveAspectRatio="xMidYMid meet" viewBox="0 0 540 360"
                 patternUnits="userSpaceOnUse">
            <path fill="none"
                  d="m109.2,179.19c32.607,0,62.92-9.7677,88.212-26.516l27.33,27.33-27.33,27.33c-25.292-16.749-55.605-26.516-88.212-26.516m159.98,159.98c0-32.607-9.7677-62.92-26.516-88.212l27.33-27.33,27.33,27.33c-16.749,25.292-26.516,55.605-26.516,88.212m160-159.98c-32.607-0.00002-62.92,9.7676-88.212,26.516l-27.33-27.33,27.33-27.33c25.292,16.749,55.605,26.517,88.212,26.517m-159.99-159.99c0,32.607,9.7677,62.92,26.516,88.212l-27.33,27.33-27.33-27.33c16.749-25.292,26.516-55.605,26.516-88.212"/>

            <rect fill-rule="evenodd" transform="matrix(0.70710678,0.70710678,-0.70710678,0.70710678,0,0)"
                  height="64"
                  width="64" y="-95.64" x="286.2" fill="none"/>

            <rect transform="matrix(0.70710678,0.70710678,-0.70710678,0.70710678,0,0)" ry="29.6" height="59.2"
                  width="304"
                  stroke="#000" stroke-dasharray="none" stroke-miterlimit="4" y="-93.24" x="166.2"
                  stroke-width="9.6"
                  fill="none"/>

            <rect transform="matrix(-0.70710678,0.70710678,-0.70710678,-0.70710678,0,0)" ry="29.6" height="59.2"
                  width="304"
                  stroke="#000" stroke-dasharray="none" stroke-miterlimit="4" y="-347.8" x="-215.64"
                  stroke-width="9.6"
                  fill="none"/>

            <path d="M1159.2-0.36775a81.294,87.797,0,0,1,81.3,-87.797"
                  transform="matrix(1.9681694,0,0,1.8223789,-2010.7958,341.4741)" stroke="#000"
                  stroke-dasharray="none"
                  stroke-miterlimit="4" stroke-width="5.06898069" fill="none"/>

            <path d="M1240.5,87.43a81.294,87.797,0,0,1,-81.3,-87.798"
                  transform="matrix(1.9681695,0,0,1.8223791,-2010.796,19.866208)" stroke="#000"
                  stroke-dasharray="none"
                  stroke-miterlimit="4" stroke-width="5.06898069" fill="none"/>

            <path d="m1240.5-88.165a81.294,87.797,0,0,1,81.294,87.797"
                  transform="matrix(1.9681695,0,0,1.8223791,-2332.404,341.47416)" stroke="#000"
                  stroke-dasharray="none"
                  stroke-miterlimit="4" stroke-width="5.06898069" fill="none"/>

            <path d="M1321.8-0.36774a81.294,87.797,0,0,1,-81.3,87.798"
                  transform="matrix(1.9681695,0,0,1.8223791,-2332.404,19.866159)" stroke="#000"
                  stroke-dasharray="none"
                  stroke-miterlimit="4" stroke-width="5.06898069" fill="none"/>
        </pattern>
    </defs>
    <rect x="0" y="0" width="100%" height="100%" fill="url(#arewa-knot)"/>
</svg>